<svg xmlns="http://www.w3.org/2000/svg" id="Layer_1" data-name="Layer 1" viewBox="-0.000003814697265625 0 1128.64013671875 119.77999877929688" style="box-shadow: none; border-radius: 0px; opacity: 1;" preserveAspectRatio="xMidYMid meet" fill="#FF6600" fill-opacity="1"><path d="M416,126.35H320.89a18.08,18.08,0,0,1-18-18.09V27.43a18.08,18.08,0,0,1,18-18.09H416a18.09,18.09,0,0,1,18,18.1v80.81A18.09,18.09,0,0,1,416,126.35ZM320.89,26.91a.52.52,0,0,0-.46.52v80.83a.53.53,0,0,0,.46.53H416a.51.51,0,0,0,.46-.54V27.44a.5.5,0,0,0-.46-.53Z" transform="translate(-23.94 -8.91)"></path><path d="M987,126.35H891.91a18.08,18.08,0,0,1-18-18.09V27.43a18.08,18.08,0,0,1,18-18.09h78.4V26.91h-78.4a.52.52,0,0,0-.45.52v80.83a.53.53,0,0,0,.45.53H987a.51.51,0,0,0,.47-.54V50.66H1005v57.59A18.08,18.08,0,0,1,987,126.35Z" transform="translate(-23.94 -8.91)"></path><path d="M1134.58,126.35h-95.06a18.08,18.08,0,0,1-18-18.09V27.43a18.08,18.08,0,0,1,18-18.09h95.06a18.09,18.09,0,0,1,18,18.1v80.81A18.09,18.09,0,0,1,1134.58,126.35Zm-95.06-99.44a.52.52,0,0,0-.45.52v80.83a.53.53,0,0,0,.45.53h95.06a.51.51,0,0,0,.47-.54V27.44a.5.5,0,0,0-.47-.53Z" transform="translate(-23.94 -8.91)"></path><rect x="663.13" y="117.02" width="17.57" height="0.02"></rect><path d="M562.83,126.35H467.77a18.08,18.08,0,0,1-18-18.09V27.43a18.08,18.08,0,0,1,18-18.09h95.06V26.91H467.77a.52.52,0,0,0-.46.52v80.83a.53.53,0,0,0,.46.53h95.06Z" transform="translate(-23.94 -8.91)"></path><path d="M686.62,8.91H582.87V26.46H686.62a.52.52,0,0,1,.46.55v28.1h-90.9a18.08,18.08,0,0,0-18,18.11v34.59a18.08,18.08,0,0,0,18,18.11H704.65V27A18.08,18.08,0,0,0,686.62,8.91Zm.46,99.44h-90.9a.54.54,0,0,1-.46-.54V73.22a.54.54,0,0,1,.46-.54h90.9Z" transform="translate(-23.94 -8.91)"></path><path d="M290.25,9.29,254.43,109.43a29.06,29.06,0,0,1-25.65,19.21c-.54,0-7.92.05-8.46.05h0c-.69,0-1.37,0-2-.07A29.05,29.05,0,0,1,193,109.43L157.21,9.29l18.61.06,35.9,101.34h23.93L271.56,9.35Z" transform="translate(-23.94 -8.91)"></path><path d="M852,126l-35.27-.22-91-49.46.07-.09h-.07V58.66h107.4a.52.52,0,0,0,.44-.51V27.44a.53.53,0,0,0-.44-.54H725.73V9.35h107.4a18.06,18.06,0,0,1,18,18.09V58.15a18.08,18.08,0,0,1-18,18.09H760.88Z" transform="translate(-23.94 -8.91)"></path><path d="M137.2,78.29H23.94V30.5A20.62,20.62,0,0,1,44.48,9.87H137.2V27.44H44.48a3.06,3.06,0,0,0-3,3.06V60.72H137.2Z" transform="translate(-23.94 -8.91)"></path><rect x="0.38" y="100.62" width="148.35" height="17.57"></rect><path d="M32.73,67.66" transform="translate(-23.94 -8.91)"></path></svg>